<svg width="26" height="28" viewBox="0 0 26 28" fill="none" xmlns="http://www.w3.org/2000/svg">
<g filter="url(#filter0_d_10_244)">
<path fill-rule="evenodd" clip-rule="evenodd" d="M11.0231 2.1427C9.91746 2.1427 9.02115 3.03901 9.02115 4.14466C9.02115 5.25031 9.91746 6.14661 11.0231 6.14661H15.027C16.1327 6.14661 17.029 5.25031 17.029 4.14466C17.029 3.03901 16.1327 2.1427 15.027 2.1427H11.0231ZM7.5197 4.14474H6.01807C4.91242 4.14474 4.01611 5.04104 4.01611 6.14669V20.1604C4.01611 21.266 4.91242 22.1623 6.01807 22.1623H20.0318C21.1374 22.1623 22.0337 21.266 22.0337 20.1604V6.14669C22.0337 5.04104 21.1374 4.14474 20.0318 4.14474H18.5305C18.5304 6.07961 16.9619 7.64813 15.027 7.64813H11.0231C9.08825 7.64813 7.51972 6.07961 7.5197 4.14474ZM8.64589 10.1506C8.64589 9.94324 8.81395 9.77518 9.02126 9.77518H17.0291C17.2364 9.77518 17.4045 9.94324 17.4045 10.1506C17.4045 10.3579 17.2364 10.5259 17.0291 10.5259H9.02126C8.81395 10.5259 8.64589 10.3579 8.64589 10.1506ZM9.02126 13.779C8.81395 13.779 8.64589 13.9471 8.64589 14.1544C8.64589 14.3617 8.81395 14.5298 9.02126 14.5298H17.0291C17.2364 14.5298 17.4045 14.3617 17.4045 14.1544C17.4045 13.9471 17.2364 13.779 17.0291 13.779H9.02126ZM8.64589 18.1584C8.64589 17.9511 8.81395 17.783 9.02126 17.783H13.0252C13.2325 17.783 13.4005 17.9511 13.4005 18.1584C13.4005 18.3657 13.2325 18.5337 13.0252 18.5337H9.02126C8.81395 18.5337 8.64589 18.3657 8.64589 18.1584Z" fill="white"/>
</g>
<defs>
<filter id="filter0_d_10_244" x="0.512689" y="0.641232" width="25.0245" height="27.0265" filterUnits="userSpaceOnUse" color-interpolation-filters="sRGB">
<feFlood flood-opacity="0" result="BackgroundImageFix"/>
<feColorMatrix in="SourceAlpha" type="matrix" values="0 0 0 0 0 0 0 0 0 0 0 0 0 0 0 0 0 0 127 0" result="hardAlpha"/>
<feOffset dy="2.00196"/>
<feGaussianBlur stdDeviation="1.75171"/>
<feComposite in2="hardAlpha" operator="out"/>
<feColorMatrix type="matrix" values="0 0 0 0 0.388451 0 0 0 0 0.459239 0 0 0 0 0.484722 0 0 0 0.8 0"/>
<feBlend mode="normal" in2="BackgroundImageFix" result="effect1_dropShadow_10_244"/>
<feBlend mode="normal" in="SourceGraphic" in2="effect1_dropShadow_10_244" result="shape"/>
</filter>
</defs>
</svg>
