<svg width="92" height="43" viewBox="0 0 92 43" fill="none" xmlns="http://www.w3.org/2000/svg">
<path d="M91.824 2.77506C92.1335 2.0066 91.7614 1.13278 90.9929 0.823324C90.2245 0.513869 89.3507 0.885965 89.0412 1.65442L91.824 2.77506ZM1.57655 26.7543C0.781825 26.9882 0.327162 27.822 0.561033 28.6167L4.3722 41.5676C4.60607 42.3623 5.43992 42.817 6.23465 42.5831C7.02938 42.3493 7.48405 41.5154 7.25017 40.7207L3.86247 29.2088L15.3744 25.8211C16.1691 25.5872 16.6237 24.7534 16.3899 23.9587C16.156 23.1639 15.3222 22.7093 14.5274 22.9431L1.57655 26.7543ZM87.7521 4.58494C87.3959 5.33286 87.7134 6.22796 88.4613 6.58421C89.2092 6.94047 90.1043 6.62296 90.4605 5.87505L87.7521 4.58494ZM87.2134 11.8243C87.6482 11.1192 87.4291 10.1951 86.724 9.76024C86.0188 9.32542 85.0947 9.54456 84.6599 10.2497L87.2134 11.8243ZM80.9899 15.5742C80.4858 16.2316 80.6101 17.1731 81.2675 17.6772C81.9249 18.1813 82.8665 18.0571 83.3706 17.3997L80.9899 15.5742ZM78.9853 22.5492C79.5544 21.9472 79.5278 20.9978 78.9258 20.4287C78.3238 19.8595 77.3745 19.8862 76.8053 20.4882L78.9853 22.5492ZM72.1286 24.9293C71.4974 25.4658 71.4207 26.4124 71.9572 27.0436C72.4937 27.6748 73.4403 27.7516 74.0716 27.2151L72.1286 24.9293ZM68.6538 31.3069C69.3431 30.8474 69.5294 29.9161 69.0699 29.2268C68.6104 28.5375 67.6791 28.3512 66.9898 28.8107L68.6538 31.3069ZM61.4348 32.0402C60.694 32.4111 60.3941 33.3122 60.765 34.053C61.1358 34.7938 62.0369 35.0937 62.7777 34.7229L61.4348 32.0402ZM56.5129 37.3709C57.2952 37.0985 57.7086 36.2434 57.4361 35.461C57.1636 34.6787 56.3085 34.2654 55.5262 34.5378L56.5129 37.3709ZM49.3446 36.248C48.5335 36.4165 48.0126 37.2106 48.1811 38.0217C48.3496 38.8328 49.1437 39.3538 49.9548 39.1853L49.3446 36.248ZM43.2198 40.1408C44.0457 40.0763 44.6629 39.3544 44.5984 38.5285C44.5339 37.7026 43.812 37.0854 42.9861 37.1499L43.2198 40.1408ZM36.5518 37.2631C35.724 37.229 35.0254 37.8724 34.9913 38.7001C34.9572 39.5278 35.6006 40.2265 36.4283 40.2606L36.5518 37.2631ZM29.7 39.6113C30.5192 39.7346 31.2832 39.1704 31.4065 38.3512C31.5298 37.532 30.9656 36.768 30.1464 36.6447L29.7 39.6113ZM23.8037 35.3673C23.0002 35.1655 22.1853 35.6533 21.9835 36.4568C21.7817 37.2603 22.2695 38.0752 23.0729 38.277L23.8037 35.3673ZM16.618 36.3548C17.4015 36.624 18.2548 36.2071 18.524 35.4236C18.7932 34.6401 18.3762 33.7868 17.5928 33.5176L16.618 36.3548ZM11.5161 31.168C10.7547 30.8414 9.87278 31.1938 9.54618 31.9551C9.21957 32.7165 9.57199 33.5984 10.3333 33.925L11.5161 31.168ZM4.27642 31.0868C5.01513 31.4618 5.91794 31.1669 6.29292 30.4282C6.66789 29.6895 6.37303 28.7867 5.63432 28.4117L4.27642 31.0868ZM89.0412 1.65442C88.6596 2.60197 88.23 3.58159 87.7521 4.58494L90.4605 5.87505C90.9642 4.81761 91.4188 3.78149 91.824 2.77506L89.0412 1.65442ZM84.6599 10.2497C83.5701 12.017 82.3469 13.8046 80.9899 15.5742L83.3706 17.3997C84.7912 15.5471 86.0718 13.6756 87.2134 11.8243L84.6599 10.2497ZM76.8053 20.4882C75.3545 22.0228 73.7956 23.5123 72.1286 24.9293L74.0716 27.2151C75.8257 25.7241 77.4634 24.1589 78.9853 22.5492L76.8053 20.4882ZM66.9898 28.8107C65.2329 29.9818 63.3814 31.0658 61.4348 32.0402L62.7777 34.7229C64.8398 33.6906 66.7983 32.5438 68.6538 31.3069L66.9898 28.8107ZM55.5262 34.5378C53.5491 35.2264 51.4887 35.8025 49.3446 36.248L49.9548 39.1853C52.2289 38.7128 54.415 38.1016 56.5129 37.3709L55.5262 34.5378ZM42.9861 37.1499C40.9116 37.312 38.767 37.3543 36.5518 37.2631L36.4283 40.2606C38.7615 40.3566 41.0253 40.3122 43.2198 40.1408L42.9861 37.1499ZM30.1464 36.6447C28.0878 36.3349 25.9736 35.9123 23.8037 35.3673L23.0729 38.277C25.3341 38.8448 27.5431 39.2867 29.7 39.6113L30.1464 36.6447ZM17.5928 33.5176C15.61 32.8364 13.5845 32.0553 11.5161 31.168L10.3333 33.925C12.4677 34.8406 14.5626 35.6487 16.618 36.3548L17.5928 33.5176ZM5.63432 28.4117C4.67089 27.9227 3.69881 27.4111 2.7181 26.8763L1.28194 29.5102C2.28808 30.0588 3.28623 30.5842 4.27642 31.0868L5.63432 28.4117Z" fill="#EE7F50"/>
</svg>
