<svg width="48" height="49" viewBox="0 0 48 49" fill="none" xmlns="http://www.w3.org/2000/svg">
<rect width="48" height="48" transform="translate(0 0.138672)" fill="white"/>
<path d="M24 44.1387C35.0457 44.1387 44 35.1844 44 24.1387C44 13.093 35.0457 4.13867 24 4.13867C12.9543 4.13867 4 13.093 4 24.1387C4 35.1844 12.9543 44.1387 24 44.1387Z" fill="black" stroke="white" stroke-width="3"/>
<path d="M23.9642 34.1387L23.9642 22.1877M23.9642 22.1877C23.4414 22.1807 22.9255 22.5466 22.5449 22.9933L19.9961 25.904M23.9642 22.1877C24.4686 22.1946 24.9796 22.5586 25.3835 22.9933L27.9471 25.904M29.9785 16.1387L17.9785 16.1387" stroke="white" stroke-width="3" stroke-linecap="round"/>
</svg>